<svg width="107" height="24" viewBox="0 0 107 24" fill="none" xmlns="http://www.w3.org/2000/svg">
<path fill-rule="evenodd" clip-rule="evenodd" d="M98.2348 8.08621L97.0594 7.86383C96.5511 9.82814 98.5154 10.1935 98.2348 8.08621Z" fill="#FFA52A"/>
<path d="M98.2348 8.08621L97.0594 7.86383C96.5511 9.82814 98.5154 10.1935 98.2348 8.08621Z" stroke="#FFA52A" stroke-width="0.57" stroke-miterlimit="22.93"/>
<path fill-rule="evenodd" clip-rule="evenodd" d="M29.1557 9.49981C29.1239 9.57393 29.0551 9.6004 29.0551 9.71689C29.0551 10.4952 28.8697 11.2259 30.347 10.4687V9.63747C29.5633 9.24037 30.061 9.22448 29.1557 9.5051V9.49981Z" fill="#FFA52A"/>
<path d="M29.1557 9.49981C29.1239 9.57393 29.0551 9.6004 29.0551 9.71689C29.0551 10.4952 28.8697 11.2259 30.347 10.4687V9.63747C29.5633 9.24037 30.061 9.22448 29.1557 9.5051V9.49981Z" stroke="#FFA52A" stroke-width="0.57" stroke-miterlimit="22.93"/>
<path fill-rule="evenodd" clip-rule="evenodd" d="M96.7153 5.62415C93.1414 6.55071 90.5682 10.0664 91.2777 14.7998C91.8019 18.2889 94.7669 22.4293 99.0873 21.2486C102.449 20.3327 104.747 16.5311 104.16 11.9142C103.72 8.46208 100.591 4.61817 96.7153 5.61885V5.62415ZM96.6677 3.82397C84.85 6.2701 88.6939 25.2196 99.1456 23.0859C109.994 20.8727 107.061 1.67435 96.6677 3.82397Z" fill="#FFA52A"/>
<path d="M96.7153 5.62415C93.1414 6.55071 90.5682 10.0664 91.2777 14.7998C91.8019 18.2889 94.7669 22.4293 99.0873 21.2486C102.449 20.3327 104.747 16.5311 104.16 11.9142C103.72 8.46208 100.591 4.61817 96.7153 5.61885V5.62415ZM96.6677 3.82397C84.85 6.2701 88.6939 25.2196 99.1456 23.0859C109.994 20.8727 107.061 1.67435 96.6677 3.82397Z" stroke="#FFA52A" stroke-width="0.57" stroke-miterlimit="22.93"/>
<path fill-rule="evenodd" clip-rule="evenodd" d="M98.1078 13.7514C98.1396 13.672 98.7379 13.3384 98.0707 12.6978C97.6789 12.3218 97.4513 12.3695 97.1071 12.7189C96.4506 13.3808 96.9536 14.1061 98.1078 13.7461V13.7514Z" fill="#FFA52A"/>
<path d="M98.1078 13.7514C98.1396 13.672 98.7379 13.3384 98.0707 12.6978C97.6789 12.3218 97.4513 12.3695 97.1071 12.7189C96.4506 13.3808 96.9536 14.1061 98.1078 13.7461V13.7514Z" stroke="#FFA52A" stroke-width="0.57" stroke-miterlimit="22.93"/>
<path fill-rule="evenodd" clip-rule="evenodd" d="M97.1017 17.8442C96.7364 18.9825 98.4466 19.7503 98.2825 17.5106L97.1017 17.8442Z" fill="#FFA52A"/>
<path d="M97.1017 17.8442C96.7364 18.9825 98.4466 19.7503 98.2825 17.5106L97.1017 17.8442Z" stroke="#FFA52A" stroke-width="0.57" stroke-miterlimit="22.93"/>
<path fill-rule="evenodd" clip-rule="evenodd" d="M44.5049 18.0507L51.8115 18.1512L51.8327 17.0076C50.1331 16.997 48.4759 16.9176 46.7922 16.9017C42.7312 16.8646 42.9059 16.1393 42.3182 17.4682C42.9324 17.9871 42.0482 17.6006 42.9747 17.7965C43.6895 17.9501 43.5148 17.5159 44.5049 18.0507ZM42.1806 19.9779C44.5684 19.4749 49.1536 20.1156 51.8539 19.9991C51.9015 20.8939 51.5627 22.1858 52.1662 22.7946C53.024 23.6524 53.564 22.5723 53.7229 21.7569C53.9135 20.7827 53.8446 4.79816 53.4687 3.94573L52.0974 3.78689C51.7215 5.08407 51.838 12.8937 51.8909 14.8633L42.1594 14.7786L42.1329 6.49245C42.1488 4.84052 42.4188 4.17869 41.1746 3.4798C39.6868 4.23164 40.3274 5.34351 40.2374 8.86445C40.1845 10.8817 40.2162 13.3596 40.2692 15.3874C40.3221 17.4524 40.2004 19.639 40.2851 21.6563C40.4069 24.4995 42.3765 23.4512 42.1753 19.9779H42.1806Z" fill="#FFA52A"/>
<path d="M44.5049 18.0507L51.8115 18.1512L51.8327 17.0076C50.1331 16.997 48.4759 16.9176 46.7922 16.9017C42.7312 16.8646 42.9059 16.1393 42.3182 17.4682C42.9324 17.9871 42.0482 17.6006 42.9747 17.7965C43.6895 17.9501 43.5148 17.5159 44.5049 18.0507ZM42.1806 19.9779C44.5684 19.4749 49.1536 20.1156 51.8539 19.9991C51.9015 20.8939 51.5627 22.1858 52.1662 22.7946C53.024 23.6524 53.564 22.5723 53.7229 21.7569C53.9135 20.7827 53.8446 4.79816 53.4687 3.94573L52.0974 3.78689C51.7215 5.08407 51.838 12.8937 51.8909 14.8633L42.1594 14.7786L42.1329 6.49245C42.1488 4.84052 42.4188 4.17869 41.1746 3.4798C39.6868 4.23164 40.3274 5.34351 40.2374 8.86445C40.1845 10.8817 40.2162 13.3596 40.2692 15.3874C40.3221 17.4524 40.2004 19.639 40.2851 21.6563C40.4069 24.4995 42.3765 23.4512 42.1753 19.9779H42.1806Z" stroke="#FFA52A" stroke-width="0.57" stroke-miterlimit="22.93"/>
<path fill-rule="evenodd" clip-rule="evenodd" d="M25.8624 16.4464L33.815 16.5735C33.4497 12.2054 31.6918 8.15499 29.521 5.56591C27.8215 6.9584 25.873 13.3755 25.8624 16.4464ZM25.6665 18.7919C26.2384 19.7397 27.6203 19.3108 29.8122 19.3055C33.0843 19.2949 33.4073 19.872 34.0162 18.7919C33.4126 18.3631 33.6244 18.4107 32.179 18.3948L27.7473 18.3525C26.1801 18.3154 26.339 18.183 25.6665 18.7866V18.7919ZM28.2133 3.8981C26.9637 5.75123 25.0577 9.60573 24.5653 12.3272C24.3905 13.2961 22.908 22.3287 23.967 23.25C25.5818 24.2825 25.2006 22.207 25.6824 21.2486C27.3502 21.0316 32.7561 20.9627 33.995 21.4075C34.408 22.5829 33.8838 22.6305 34.641 23.7107C35.864 23.6577 35.9434 23.3718 35.9911 22.0746C36.1499 17.876 35.1281 11.5489 33.2855 7.87967C32.4331 6.18009 31.5595 5.48649 30.7494 3.63337C31.4271 2.82858 33.1214 1.67435 32.772 0.784852C32.7614 0.768968 32.629 -0.36938 30.8871 0.858977C30.3258 1.25608 29.9817 1.74848 29.5157 2.24088C28.0227 1.57905 27.3926 0.22362 25.7671 0.488352C25.3383 2.45266 26.0319 1.84378 28.2133 3.89281V3.8981Z" fill="#FFA52A"/>
<path d="M25.8624 16.4464L33.815 16.5735C33.4497 12.2054 31.6918 8.15499 29.521 5.56591C27.8215 6.9584 25.873 13.3755 25.8624 16.4464ZM25.6665 18.7919C26.2384 19.7397 27.6203 19.3108 29.8122 19.3055C33.0843 19.2949 33.4073 19.872 34.0162 18.7919C33.4126 18.3631 33.6244 18.4107 32.179 18.3948L27.7473 18.3525C26.1801 18.3154 26.339 18.183 25.6665 18.7866V18.7919ZM28.2133 3.8981C26.9637 5.75123 25.0577 9.60573 24.5653 12.3272C24.3905 13.2961 22.908 22.3287 23.967 23.25C25.5818 24.2825 25.2006 22.207 25.6824 21.2486C27.3502 21.0316 32.7561 20.9627 33.995 21.4075C34.408 22.5829 33.8838 22.6305 34.641 23.7107C35.864 23.6577 35.9434 23.3718 35.9911 22.0746C36.1499 17.876 35.1281 11.5489 33.2855 7.87967C32.4331 6.18009 31.5595 5.48649 30.7494 3.63337C31.4271 2.82858 33.1214 1.67435 32.772 0.784852C32.7614 0.768968 32.629 -0.36938 30.8871 0.858977C30.3258 1.25608 29.9817 1.74848 29.5157 2.24088C28.0227 1.57905 27.3926 0.22362 25.7671 0.488352C25.3383 2.45266 26.0319 1.84378 28.2133 3.89281V3.8981Z" stroke="#FFA52A" stroke-width="0.57" stroke-miterlimit="22.93"/>
<path fill-rule="evenodd" clip-rule="evenodd" d="M29.1292 13.3596C28.4621 15.1121 30.0187 14.7098 30.2728 14.2174C30.5005 13.7779 30.4476 12.8672 29.1292 13.3596Z" fill="#FFA52A"/>
<path d="M29.1292 13.3596C28.4621 15.1121 30.0187 14.7098 30.2728 14.2174C30.5005 13.7779 30.4476 12.8672 29.1292 13.3596Z" stroke="#FFA52A" stroke-width="0.57" stroke-miterlimit="22.93"/>
<path fill-rule="evenodd" clip-rule="evenodd" d="M9.87256 10.3576L5.90687 6.78369C-0.547299 0.716026 1.21582 5.35413 1.2317 13.1426C1.2317 15.1545 1.16287 21.8205 1.49114 23.2024L2.77244 23.25C3.67782 21.6881 2.88892 9.39394 2.87833 6.68309L5.65802 9.08156C6.59517 9.91811 7.56939 10.6594 8.37417 11.6653C7.62763 12.9414 6.18219 12.8037 6.99227 14.8262C8.50124 14.7998 8.78715 14.0903 9.4331 12.9996C11.7151 13.6614 11.1539 15.4722 13.044 14.6145C13.3353 12.9519 12.0645 12.8831 11.3233 11.6653C11.9745 10.617 15.7655 7.03783 16.7927 6.65661L16.9674 19.9303C16.9674 21.7093 16.7079 22.9694 18.4075 23.0912C19.1594 21.7252 18.6564 8.41973 18.5769 5.62416C18.4499 1.18725 15.5537 5.11587 14.5583 6.01067C13.6 6.8684 13.2717 7.08019 12.2763 8.16559C11.6357 8.86448 10.7779 9.85458 9.86726 10.3523L9.87256 10.3576Z" fill="#FFA52A"/>
<path d="M9.87256 10.3576L5.90687 6.78369C-0.547299 0.716026 1.21582 5.35413 1.2317 13.1426C1.2317 15.1545 1.16287 21.8205 1.49114 23.2024L2.77244 23.25C3.67782 21.6881 2.88892 9.39394 2.87833 6.68309L5.65802 9.08156C6.59517 9.91811 7.56939 10.6594 8.37417 11.6653C7.62763 12.9414 6.18219 12.8037 6.99227 14.8262C8.50124 14.7998 8.78715 14.0903 9.4331 12.9996C11.7151 13.6614 11.1539 15.4722 13.044 14.6145C13.3353 12.9519 12.0645 12.8831 11.3233 11.6653C11.9745 10.617 15.7655 7.03783 16.7927 6.65661L16.9674 19.9303C16.9674 21.7093 16.7079 22.9694 18.4075 23.0912C19.1594 21.7252 18.6564 8.41973 18.5769 5.62416C18.4499 1.18725 15.5537 5.11587 14.5583 6.01067C13.6 6.8684 13.2717 7.08019 12.2763 8.16559C11.6357 8.86448 10.7779 9.85458 9.86726 10.3523L9.87256 10.3576Z" stroke="#FFA52A" stroke-width="0.57" stroke-miterlimit="22.93"/>
<path fill-rule="evenodd" clip-rule="evenodd" d="M9.79318 18.8766L10.5503 18.9455C10.6827 18.6278 11.0904 19.3478 10.7939 18.1777C10.5662 17.2671 10.7939 17.8759 10.1691 17.5477C9.6714 17.8177 9.87789 17.1929 9.62904 17.9765C9.20018 19.332 9.69787 18.7231 9.79318 18.8819V18.8766Z" fill="#FFA52A"/>
<path d="M9.79318 18.8766L10.5503 18.9455C10.6827 18.6278 11.0904 19.3478 10.7939 18.1777C10.5662 17.2671 10.7939 17.8759 10.1691 17.5477C9.6714 17.8177 9.87789 17.1929 9.62904 17.9765C9.20018 19.332 9.69787 18.7231 9.79318 18.8819V18.8766Z" stroke="#FFA52A" stroke-width="0.57" stroke-miterlimit="22.93"/>
<path fill-rule="evenodd" clip-rule="evenodd" d="M10.5238 16.1446C10.6879 15.7846 10.7515 15.4299 10.455 15.1704C9.05188 14.5668 8.81362 16.87 10.5238 16.1446Z" fill="#FFA52A"/>
<path d="M10.5238 16.1446C10.6879 15.7846 10.7515 15.4299 10.455 15.1704C9.05188 14.5668 8.81362 16.87 10.5238 16.1446Z" stroke="#FFA52A" stroke-width="0.57" stroke-miterlimit="22.93"/>
<path fill-rule="evenodd" clip-rule="evenodd" d="M75.1026 12.1842C75.1026 14.3814 74.7161 21.921 75.8756 22.874C77.1463 23.43 85.3477 23.3717 86.6237 22.8317C86.5867 20.6556 83.6323 21.2698 79.4919 21.3068C77.1728 21.328 77.3687 21.3863 77.0457 20.7138C77.2999 20.2003 77.0669 19.9991 79.1848 20.052L84.8341 20.0944C86.1207 19.9779 86.2849 19.9461 86.2584 18.6383C84.67 17.823 79.6348 18.4795 77.4322 18.1724C76.7863 17.7965 76.8816 11.7394 76.8922 11.0088C76.9187 8.74794 77.2099 5.29583 76.3627 3.63861C73.9642 3.83981 75.1026 6.15357 75.1026 12.1789V12.1842Z" fill="#FFA52A"/>
<path d="M75.1026 12.1842C75.1026 14.3814 74.7161 21.921 75.8756 22.874C77.1463 23.43 85.3477 23.3717 86.6237 22.8317C86.5867 20.6556 83.6323 21.2698 79.4919 21.3068C77.1728 21.328 77.3687 21.3863 77.0457 20.7138C77.2999 20.2003 77.0669 19.9991 79.1848 20.052L84.8341 20.0944C86.1207 19.9779 86.2849 19.9461 86.2584 18.6383C84.67 17.823 79.6348 18.4795 77.4322 18.1724C76.7863 17.7965 76.8816 11.7394 76.8922 11.0088C76.9187 8.74794 77.2099 5.29583 76.3627 3.63861C73.9642 3.83981 75.1026 6.15357 75.1026 12.1789V12.1842Z" stroke="#FFA52A" stroke-width="0.57" stroke-miterlimit="22.93"/>
<path fill-rule="evenodd" clip-rule="evenodd" d="M79.4495 17.14L79.603 15.7211C78.6182 15.6046 78.1947 15.3134 78.0888 16.3141C77.9935 17.2089 78.7082 17.1718 79.4495 17.14Z" fill="#FFA52A"/>
<path d="M79.4495 17.14L79.603 15.7211C78.6182 15.6046 78.1947 15.3134 78.0888 16.3141C77.9935 17.2089 78.7082 17.1718 79.4495 17.14Z" stroke="#FFA52A" stroke-width="0.57" stroke-miterlimit="22.93"/>
<path fill-rule="evenodd" clip-rule="evenodd" d="M82.1286 17.0711C82.7798 16.3775 82.5363 16.8964 82.531 15.6892L81.2285 15.6575C81.1808 17.1559 80.8102 16.8858 82.1286 17.0658V17.0711Z" fill="#FFA52A"/>
<path d="M82.1286 17.0711C82.7798 16.3775 82.5363 16.8964 82.531 15.6892L81.2285 15.6575C81.1808 17.1559 80.8102 16.8858 82.1286 17.0658V17.0711Z" stroke="#FFA52A" stroke-width="0.57" stroke-miterlimit="22.93"/>
<path fill-rule="evenodd" clip-rule="evenodd" d="M60.5423 16.4464L68.4948 16.5735C68.1295 12.2054 66.3717 8.15499 64.2009 5.56591C62.5013 6.9584 60.5528 13.3755 60.5423 16.4464ZM60.3464 18.7919C60.9182 19.7397 62.3001 19.3108 64.4921 19.3055C67.7641 19.2949 68.0818 19.872 68.696 18.7919C68.0924 18.3631 68.3042 18.4107 66.8588 18.3948L62.4271 18.3525C60.8599 18.3154 61.0188 18.183 60.3464 18.7866V18.7919ZM62.8931 3.8981C61.6382 5.75123 59.7375 9.60573 59.2451 12.3272C59.0703 13.2961 57.5878 22.3287 58.6468 23.25C60.2616 24.2825 59.8804 22.207 60.3622 21.2486C62.03 21.0316 67.4359 20.9627 68.6748 21.4075C69.0878 22.5829 68.5636 22.6305 69.3155 23.7107C70.5385 23.6577 70.618 23.3718 70.6656 22.0746C70.8244 17.876 69.8026 11.5489 67.96 7.87967C67.1076 6.18009 66.234 5.48649 65.4239 3.63337C66.1016 2.82858 67.7959 1.67435 67.4465 0.784852C67.4359 0.768968 67.3035 -0.36938 65.5616 0.858977C65.0003 1.25608 64.6562 1.74848 64.1903 2.24088C62.6972 1.57905 62.0671 0.22362 60.4417 0.488352C60.0128 2.45266 60.7064 1.84378 62.8878 3.89281L62.8931 3.8981Z" fill="#FFA52A"/>
<path d="M60.5423 16.4464L68.4948 16.5735C68.1295 12.2054 66.3717 8.15499 64.2009 5.56591C62.5013 6.9584 60.5528 13.3755 60.5423 16.4464ZM60.3464 18.7919C60.9182 19.7397 62.3001 19.3108 64.4921 19.3055C67.7641 19.2949 68.0818 19.872 68.696 18.7919C68.0924 18.3631 68.3042 18.4107 66.8588 18.3948L62.4271 18.3525C60.8599 18.3154 61.0188 18.183 60.3464 18.7866V18.7919ZM62.8931 3.8981C61.6382 5.75123 59.7375 9.60573 59.2451 12.3272C59.0703 13.2961 57.5878 22.3287 58.6468 23.25C60.2616 24.2825 59.8804 22.207 60.3622 21.2486C62.03 21.0316 67.4359 20.9627 68.6748 21.4075C69.0878 22.5829 68.5636 22.6305 69.3155 23.7107C70.5385 23.6577 70.618 23.3718 70.6656 22.0746C70.8244 17.876 69.8026 11.5489 67.96 7.87967C67.1076 6.18009 66.234 5.48649 65.4239 3.63337C66.1016 2.82858 67.7959 1.67435 67.4465 0.784852C67.4359 0.768968 67.3035 -0.36938 65.5616 0.858977C65.0003 1.25608 64.6562 1.74848 64.1903 2.24088C62.6972 1.57905 62.0671 0.22362 60.4417 0.488352C60.0128 2.45266 60.7064 1.84378 62.8878 3.89281L62.8931 3.8981Z" stroke="#FFA52A" stroke-width="0.57" stroke-miterlimit="22.93"/>
<path fill-rule="evenodd" clip-rule="evenodd" d="M63.8091 13.3596C63.142 15.1121 64.6986 14.7098 64.9528 14.2174C65.1804 13.7779 65.1275 12.8672 63.8091 13.3596Z" fill="#FFA52A"/>
<path d="M63.8091 13.3596C63.142 15.1121 64.6986 14.7098 64.9528 14.2174C65.1804 13.7779 65.1275 12.8672 63.8091 13.3596Z" stroke="#FFA52A" stroke-width="0.57" stroke-miterlimit="22.93"/>
<path fill-rule="evenodd" clip-rule="evenodd" d="M63.8356 9.49981C63.8038 9.57393 63.735 9.6004 63.735 9.71689C63.735 10.4952 63.5497 11.2259 65.0269 10.4687V9.63747C64.2433 9.24037 64.741 9.22448 63.8356 9.5051V9.49981Z" fill="#FFA52A"/>
<path d="M63.8356 9.49981C63.8038 9.57393 63.735 9.6004 63.735 9.71689C63.735 10.4952 63.5497 11.2259 65.0269 10.4687V9.63747C64.2433 9.24037 64.741 9.22448 63.8356 9.5051V9.49981Z" stroke="#FFA52A" stroke-width="0.57" stroke-miterlimit="22.93"/>
</svg>
